<svg id="Capa_1" data-name="Capa 1" xmlns="http://www.w3.org/2000/svg" viewBox="0 0 16 16"><defs><style>.cls-1{fill:#555877;}.cls-2{fill:#fff;}</style></defs><path class="cls-1" d="M15.26,0H.74C.33,0,0,.44,0,1V15c0,.55.33,1,.74,1H15.26c.41,0,.74-.44.74-1V1C16,.44,15.67,0,15.26,0Z"/><path class="cls-2" d="M12.07,11.36A7.83,7.83,0,0,1,11,11.29,3.58,3.58,0,0,1,10,11a1.73,1.73,0,0,1-.69-.5,1.35,1.35,0,0,1-.26-.84V2.44H11V5.92l-.36-.59a1.64,1.64,0,0,1,.59-.42,2.78,2.78,0,0,1,.73-.22,4.36,4.36,0,0,1,.62-.07,2.76,2.76,0,0,1,2.19.86A3.62,3.62,0,0,1,15.48,8a4.47,4.47,0,0,1-.25,1.62,2.6,2.6,0,0,1-.72,1,2.81,2.81,0,0,1-1.08.57A4.83,4.83,0,0,1,12.07,11.36ZM12,9.8a1.59,1.59,0,0,0,.9-.22A1.26,1.26,0,0,0,13.42,9a2.48,2.48,0,0,0,.14-.89,2.63,2.63,0,0,0-.19-1.15,1.26,1.26,0,0,0-.52-.62,1.64,1.64,0,0,0-.78-.19,2.67,2.67,0,0,0-.56.06,1.84,1.84,0,0,0-.55.21V9.21a.31.31,0,0,0,0,.19.36.36,0,0,0,.11.16,1,1,0,0,0,.39.19A2.56,2.56,0,0,0,12,9.8Z"/><path class="cls-2" d="M.63,11.17V2.77H4.08A4.23,4.23,0,0,1,7.29,3.84,4.31,4.31,0,0,1,8.32,7a4.34,4.34,0,0,1-1,3.14,4.27,4.27,0,0,1-3.21,1.06ZM2.72,9.6H3.83A2.31,2.31,0,0,0,5.59,9a2.8,2.8,0,0,0,.6-2,2.86,2.86,0,0,0-.6-2,2.31,2.31,0,0,0-1.76-.63H2.72Z"/><path class="cls-2" d="M7.53,13v.55h-7V13Z"/><path class="cls-2" d="M14.54,13v.55h-7V13Z"/></svg>